# xmcd
#
# Track frame offsets:
#	182
#	11315
#	23557
#	50917
#	61432
#	69997
#	81617
#	107215
#	121652
#	133637
#	144415
#	157317
#	171380
#	184915
#
# Disc length: 2837 seconds
#
# Revision: 0
# Processed by: cddbd v1.4PL0 Copyright (c) Steve Scherf et al.
# Submitted via: dBpowerAMP V4.0
#
DISCID=c80b130e
DTITLE=Johnny Guitar Watson - Real Blues For Ya
DYEAR=1990
DGENRE=Blues
TTITLE0=Johnny guitar
TTITLE1=Gangster of love
TTITLE2=Polka dots and moonbeams
TTITLE3=Exactly like you
TTITLE4=Looking back
TTITLE5=The eagle is back
TTITLE6=Misty
TTITLE7=Witchcraft
TTITLE8=One room country shack
TTITLE9=Reconsider baby
TTITLE10=She moves me
TTITLE11=I cried for you
TTITLE12=Someone cares for me
TTITLE13=When did you leave heaven
EXTD=
EXTT0=
EXTT1=
EXTT2=
EXTT3=
EXTT4=
EXTT5=
EXTT6=
EXTT7=
EXTT8=
EXTT9=
EXTT10=
EXTT11=
EXTT12=
EXTT13=
PLAYORDER=
